<mxfile host="app.diagrams.net" modified="2024-04-09T20:10:36.384Z" agent="Mozilla/5.0 (Windows NT 10.0; Win64; x64) AppleWebKit/537.36 (KHTML, like Gecko) Chrome/123.0.0.0 Safari/537.36" etag="t4ERTsY8pwOeDyrmS8Df" version="24.2.2" type="github">
  <diagram id="C5RBs43oDa-KdzZeNtuy" name="Page-1">
    <mxGraphModel dx="1434" dy="738" grid="1" gridSize="10" guides="1" tooltips="1" connect="1" arrows="1" fold="1" page="1" pageScale="1" pageWidth="827" pageHeight="1169" math="0" shadow="0">
      <root>
        <mxCell id="WIyWlLk6GJQsqaUBKTNV-0" />
        <mxCell id="WIyWlLk6GJQsqaUBKTNV-1" parent="WIyWlLk6GJQsqaUBKTNV-0" />
        <mxCell id="WIyWlLk6GJQsqaUBKTNV-3" value="App Documentation (PDFs, Confluence, Wiki)" style="rounded=1;whiteSpace=wrap;html=1;fontSize=12;glass=0;strokeWidth=1;shadow=0;" parent="WIyWlLk6GJQsqaUBKTNV-1" vertex="1">
          <mxGeometry x="630" y="335" width="120" height="90" as="geometry" />
        </mxCell>
        <mxCell id="2BqAnh0jqUrk7e76bJp6-17" style="edgeStyle=orthogonalEdgeStyle;rounded=0;orthogonalLoop=1;jettySize=auto;html=1;exitX=0.5;exitY=0;exitDx=0;exitDy=0;entryX=0.5;entryY=1;entryDx=0;entryDy=0;" edge="1" parent="WIyWlLk6GJQsqaUBKTNV-1" source="2BqAnh0jqUrk7e76bJp6-0" target="2BqAnh0jqUrk7e76bJp6-6">
          <mxGeometry relative="1" as="geometry" />
        </mxCell>
        <mxCell id="2BqAnh0jqUrk7e76bJp6-0" value="Prompt" style="ellipse;whiteSpace=wrap;html=1;aspect=fixed;" vertex="1" parent="WIyWlLk6GJQsqaUBKTNV-1">
          <mxGeometry x="374" y="340" width="80" height="80" as="geometry" />
        </mxCell>
        <mxCell id="2BqAnh0jqUrk7e76bJp6-1" value="" style="endArrow=classic;html=1;rounded=0;exitX=0;exitY=0.5;exitDx=0;exitDy=0;entryX=1;entryY=0.5;entryDx=0;entryDy=0;" edge="1" parent="WIyWlLk6GJQsqaUBKTNV-1" source="WIyWlLk6GJQsqaUBKTNV-3" target="2BqAnh0jqUrk7e76bJp6-0">
          <mxGeometry width="50" height="50" relative="1" as="geometry">
            <mxPoint x="390" y="410" as="sourcePoint" />
            <mxPoint x="440" y="360" as="targetPoint" />
          </mxGeometry>
        </mxCell>
        <mxCell id="2BqAnh0jqUrk7e76bJp6-3" style="edgeStyle=orthogonalEdgeStyle;rounded=0;orthogonalLoop=1;jettySize=auto;html=1;exitX=0;exitY=0.5;exitDx=0;exitDy=0;entryX=1;entryY=1;entryDx=0;entryDy=0;" edge="1" parent="WIyWlLk6GJQsqaUBKTNV-1" source="2BqAnh0jqUrk7e76bJp6-2" target="2BqAnh0jqUrk7e76bJp6-0">
          <mxGeometry relative="1" as="geometry" />
        </mxCell>
        <mxCell id="2BqAnh0jqUrk7e76bJp6-2" value="Existing Tests&lt;div&gt;&amp;nbsp;(jUnit, BDD, Zephyr)&lt;/div&gt;" style="rounded=1;whiteSpace=wrap;html=1;fontSize=12;glass=0;strokeWidth=1;shadow=0;" vertex="1" parent="WIyWlLk6GJQsqaUBKTNV-1">
          <mxGeometry x="630" y="495" width="120" height="90" as="geometry" />
        </mxCell>
        <mxCell id="2BqAnh0jqUrk7e76bJp6-7" style="edgeStyle=orthogonalEdgeStyle;rounded=0;orthogonalLoop=1;jettySize=auto;html=1;exitX=0.5;exitY=0;exitDx=0;exitDy=0;entryX=0.5;entryY=1;entryDx=0;entryDy=0;" edge="1" parent="WIyWlLk6GJQsqaUBKTNV-1" source="2BqAnh0jqUrk7e76bJp6-4" target="2BqAnh0jqUrk7e76bJp6-0">
          <mxGeometry relative="1" as="geometry" />
        </mxCell>
        <mxCell id="2BqAnh0jqUrk7e76bJp6-4" value="User Persona" style="rounded=1;whiteSpace=wrap;html=1;fontSize=12;glass=0;strokeWidth=1;shadow=0;" vertex="1" parent="WIyWlLk6GJQsqaUBKTNV-1">
          <mxGeometry x="354" y="600" width="120" height="90" as="geometry" />
        </mxCell>
        <mxCell id="2BqAnh0jqUrk7e76bJp6-8" style="edgeStyle=orthogonalEdgeStyle;rounded=0;orthogonalLoop=1;jettySize=auto;html=1;exitX=1;exitY=0.5;exitDx=0;exitDy=0;entryX=0;entryY=0.5;entryDx=0;entryDy=0;" edge="1" parent="WIyWlLk6GJQsqaUBKTNV-1" source="2BqAnh0jqUrk7e76bJp6-5" target="2BqAnh0jqUrk7e76bJp6-0">
          <mxGeometry relative="1" as="geometry" />
        </mxCell>
        <mxCell id="2BqAnh0jqUrk7e76bJp6-5" value="App URL&amp;nbsp;&lt;div&gt;(Working Instance)&lt;/div&gt;" style="rounded=1;whiteSpace=wrap;html=1;fontSize=12;glass=0;strokeWidth=1;shadow=0;" vertex="1" parent="WIyWlLk6GJQsqaUBKTNV-1">
          <mxGeometry x="110" y="335" width="120" height="90" as="geometry" />
        </mxCell>
        <mxCell id="2BqAnh0jqUrk7e76bJp6-6" value="LLM (ChatGPT)" style="ellipse;whiteSpace=wrap;html=1;aspect=fixed;" vertex="1" parent="WIyWlLk6GJQsqaUBKTNV-1">
          <mxGeometry x="374" y="230" width="80" height="80" as="geometry" />
        </mxCell>
        <mxCell id="2BqAnh0jqUrk7e76bJp6-9" value="Step&amp;nbsp;&lt;div&gt;Definitions&lt;/div&gt;" style="strokeWidth=2;html=1;shape=mxgraph.flowchart.multi-document;whiteSpace=wrap;" vertex="1" parent="WIyWlLk6GJQsqaUBKTNV-1">
          <mxGeometry x="400" y="50" width="88" height="60" as="geometry" />
        </mxCell>
        <mxCell id="2BqAnh0jqUrk7e76bJp6-10" value="Feature&amp;nbsp;&lt;div&gt;F&lt;span style=&quot;background-color: initial;&quot;&gt;iles&lt;/span&gt;&lt;/div&gt;" style="strokeWidth=2;html=1;shape=mxgraph.flowchart.multi-document;whiteSpace=wrap;" vertex="1" parent="WIyWlLk6GJQsqaUBKTNV-1">
          <mxGeometry x="326" y="30" width="88" height="60" as="geometry" />
        </mxCell>
        <mxCell id="2BqAnh0jqUrk7e76bJp6-13" value="" style="verticalLabelPosition=bottom;verticalAlign=top;html=1;strokeWidth=2;shape=mxgraph.arrows2.arrow;dy=0.6;dx=40;notch=0;rotation=-90;" vertex="1" parent="WIyWlLk6GJQsqaUBKTNV-1">
          <mxGeometry x="379" y="140" width="70" height="50" as="geometry" />
        </mxCell>
        <mxCell id="2BqAnh0jqUrk7e76bJp6-16" style="edgeStyle=orthogonalEdgeStyle;rounded=0;orthogonalLoop=1;jettySize=auto;html=1;exitX=1;exitY=0.5;exitDx=0;exitDy=0;entryX=0;entryY=1;entryDx=0;entryDy=0;" edge="1" parent="WIyWlLk6GJQsqaUBKTNV-1" source="2BqAnh0jqUrk7e76bJp6-14" target="2BqAnh0jqUrk7e76bJp6-0">
          <mxGeometry relative="1" as="geometry" />
        </mxCell>
        <mxCell id="2BqAnh0jqUrk7e76bJp6-14" value="User Spec" style="rounded=1;whiteSpace=wrap;html=1;fontSize=12;glass=0;strokeWidth=1;shadow=0;" vertex="1" parent="WIyWlLk6GJQsqaUBKTNV-1">
          <mxGeometry x="170" y="495" width="120" height="90" as="geometry" />
        </mxCell>
      </root>
    </mxGraphModel>
  </diagram>
</mxfile>
